<mxfile host="app.diagrams.net" modified="2022-02-23T14:41:23.043Z" agent="5.0 (Macintosh; Intel Mac OS X 10_15_7) AppleWebKit/605.1.15 (KHTML, like Gecko) Version/15.2 Safari/605.1.15" etag="-LdjsNDzf9ja-5loCXHq" version="16.6.3" type="github">
  <diagram id="doP8aMP_kRoUw5O2d3On" name="Page-1">
    <mxGraphModel dx="1425" dy="772" grid="1" gridSize="10" guides="1" tooltips="1" connect="1" arrows="1" fold="1" page="1" pageScale="1" pageWidth="827" pageHeight="1169" math="0" shadow="0">
      <root>
        <mxCell id="0" />
        <mxCell id="1" parent="0" />
        <mxCell id="u0s_cP55FIR7yk0g_jdS-1" value="" style="rounded=0;whiteSpace=wrap;html=1;" vertex="1" parent="1">
          <mxGeometry x="90" y="150" width="170" height="60" as="geometry" />
        </mxCell>
        <mxCell id="u0s_cP55FIR7yk0g_jdS-2" value="" style="ellipse;whiteSpace=wrap;html=1;aspect=fixed;" vertex="1" parent="1">
          <mxGeometry x="130" y="10" width="80" height="80" as="geometry" />
        </mxCell>
        <mxCell id="u0s_cP55FIR7yk0g_jdS-3" value="" style="endArrow=classic;html=1;rounded=0;entryX=0.465;entryY=-0.033;entryDx=0;entryDy=0;entryPerimeter=0;exitX=0.5;exitY=1;exitDx=0;exitDy=0;" edge="1" parent="1" source="u0s_cP55FIR7yk0g_jdS-2" target="u0s_cP55FIR7yk0g_jdS-1">
          <mxGeometry width="50" height="50" relative="1" as="geometry">
            <mxPoint x="390" y="420" as="sourcePoint" />
            <mxPoint x="440" y="370" as="targetPoint" />
          </mxGeometry>
        </mxCell>
      </root>
    </mxGraphModel>
  </diagram>
</mxfile>
